# xmcd
#
# Track frame offsets: 
#        150
#        19508
#        37308
#        58369
#        76419
#        92045
#        110862
#        128267
#        144284
#        160698
#        187537
#        224356
#
# Disc length: 3376 seconds
#
# Revision: 0
# Processed by: cddbd v1.4PL0 Copyright (c) Steve Scherf et al.
# Submitted via: ExactAudioCopy v0.90b4
#
DISCID=9b0d2e0c
DTITLE=Craig David - Born To Do It
DYEAR=2001
DGENRE=R&B
TTITLE0=Fill Me In
TTITLE1=Can't Be Messing 'Round
TTITLE2=Booty Man
TTITLE3=7 Days
TTITLE4=Walking Away
TTITLE5=Time To Party
TTITLE6=Rendezvous
TTITLE7=Once In A Lifetime
TTITLE8=You Know What
TTITLE9=Fill Me In(Artful Bodger Remix)
TTITLE10=Fill Me In(Sunship Remix)
TTITLE11=Data
EXTD=
EXTT0=
EXTT1=
EXTT2=
EXTT3=
EXTT4=
EXTT5=
EXTT6=
EXTT7=
EXTT8=
EXTT9=
EXTT10=
EXTT11=
PLAYORDER=
